<svg width="85" height="53" viewBox="0 0 85 53" fill="none" xmlns="http://www.w3.org/2000/svg">
<path d="M75.48 29C79.935 29 83.115 31 83.115 31L81.529 34.241C81.529 34.241 78.618 32.579 75.545 32.579C73.184 32.579 71.632 33.285 71.632 35.209C71.632 39.733 84.256 37.674 84.256 45.675C84.222 50.535 80.509 53 75.581 53C69.841 53 66.5 50.094 66.5 50.094L68.591 46.923C68.591 46.923 71.53 49.422 75.378 49.422C78.247 49.422 79.968 48.171 79.968 46.148C79.968 41.454 67.409 43.144 67.409 35.413C67.409 31.092 70.753 29 75.48 29ZM8.283 1.648C8.69 2.061 9.496 3.993 9.569 4.168L9.574 4.18L14.524 17.395C14.809 18.148 15.407 18.562 16.01 18.615C16.3304 18.6269 16.6468 18.5416 16.9178 18.3702C17.1887 18.1989 17.4014 17.9495 17.528 17.655L17.587 17.505L19.152 13.349L21.782 20.253C20.489 22.574 19.252 23.17 17.802 23.706C17.2372 23.8814 16.6512 23.9793 16.06 23.997C15.927 24.001 15.71 24 15.577 23.997C14.5 23.959 13.439 23.675 12.587 23.17C12.12 22.856 10.913 22.052 10.059 20.133L9.95 19.877L4.732 5.313V18.58L4.811 18.357L6.722 12.973L9.197 19.985C8.825 21.603 7.691 22.952 6.349 23.6C5.919 23.799 5.566 23.915 5.139 23.964L4.919 23.984L4.786 23.988C3.71886 24.0468 2.6612 23.7599 1.77 23.17C0.49 22.24 0.084 21.112 0.00800002 19.22L0 18.957V4.563C0.163 2.186 1.667 0.893003 3.015 0.299004C3.655 0.0830035 3.926 0.0300035 4.626 0.0300035C5.808 -0.0239965 7.26 0.460003 8.283 1.648ZM16.14 3.73123e-06C17.315 -0.0139963 18.487 0.253004 19.418 0.840004C19.883 1.147 21.085 1.905 21.94 3.82L22.05 4.077L27.21 18.69V5.368L27.088 5.728L25.278 10.981L22.808 3.969C23.128 2.403 24.313 1.055 25.657 0.406004C25.979 0.256004 26.377 0.146004 26.749 0.0790042L27.021 0.036004C27.054 0.028004 27.089 0.0260039 27.122 0.0240039L27.136 0.022004L27.15 0.0200042C28.225 -0.0629958 29.312 0.235004 30.228 0.786004C31.517 1.766 31.915 2.844 31.992 4.776L32 5.046V19.392C31.841 21.817 30.283 23.112 28.935 23.706C28.347 23.921 28.074 23.975 27.378 23.975C26.196 23.975 24.69 23.543 23.721 22.302C23.307 21.894 22.508 19.956 22.436 19.78L22.431 19.768L17.481 6.608C17.3424 6.28204 17.1212 5.99788 16.8392 5.78357C16.5572 5.56926 16.2242 5.43223 15.873 5.386C15.301 5.371 14.74 5.681 14.43 6.341L14.363 6.5L12.855 10.657L10.22 3.7C11.511 1.377 12.746 0.841004 14.197 0.300004C14.606 0.171004 15.147 0.083004 15.641 0.036004L15.93 0.0120038L15.982 0.0070037H16.033L16.14 3.73123e-06ZM34.907 29.285L34.407 32.748H24.853V38.774H34.075V42.337H24.853V49.03H34.975V52.593H20.725V29.285H34.907ZM4.903 29.253L14.259 46.201V29.253H18.421V52.561H13.326L4.17 36.146V52.56H0.00800002V29.253H4.903ZM40.791 29.253L45.054 47.733H45.187L49.515 29.253H53.511L58.005 47.733H58.139L62.235 29.253H66.664L60.736 52.561H55.808L51.546 36.312L47.318 52.561H42.356L36.396 29.253H40.791Z" fill="white"/>
</svg>
