<svg width="256" height="256" viewBox="0 0 256 256" fill="none" xmlns="http://www.w3.org/2000/svg">
<rect width="256" height="256" fill="white"/>
<path fill-rule="evenodd" clip-rule="evenodd" d="M129.331 147.403L121.517 157.812C120.677 159.041 119.44 160.231 118.496 161.377L118.403 161.502L118.397 161.497C109.035 172.836 94.8721 180.069 79.0319 180.069C50.8667 180.069 28 157.201 28 129.035C28 100.868 50.8667 78.0005 79.0319 78.0005C96.8507 78.0005 112.549 87.1529 121.677 101.009L104.059 124.499C101.915 112.623 91.5202 103.604 79.0319 103.604C64.9973 103.604 53.6027 114.999 53.6027 129.035C53.6027 143.07 64.9973 154.465 79.0319 154.465C88.8559 154.465 95.5626 150.177 103.005 141.409C103.005 141.409 135.731 98.9187 136.075 98.46C152.944 75.9044 184.952 71.2909 207.507 88.1609C220.19 97.6493 227.2 111.925 227.907 126.613H227.912V126.768C227.979 128.251 227.981 129.739 227.92 131.227L228 180.415H202.488L202.478 173.22C185.331 183.112 163.216 182.496 146.374 169.895C138.395 163.929 132.664 156.068 129.331 147.403ZM161.707 149.393C150.469 140.987 148.168 125.037 156.576 113.797C164.981 102.556 180.931 100.257 192.171 108.663C203.411 117.071 205.709 133.022 197.301 144.262C188.896 155.5 172.947 157.801 161.707 149.393Z" fill="#1C2227"/>
</svg>
